<?xml version="1.0" encoding="UTF-8"?>
<svg id="main" xmlns="http://www.w3.org/2000/svg" version="1.1" viewBox="0 0 789.8 1034.1">
  <!-- Generator: Adobe Illustrator 29.7.1, SVG Export Plug-In . SVG Version: 2.1.1 Build 8)  -->
  <defs>
    <style>
      .st0 {
        fill: #a32638;
      }

      .st1 {
        fill: #2d3d45;
      }

      .st2 {
        fill: #7f7f7f;
      }
    </style>
  </defs>
  <path class="st1" d="M163.5,498.4c-.5-3.6-1.5-6.6-3-9-1.5-2.4-3.6-4.3-6.4-5.6-2.8-1.3-6.5-1.9-11.1-1.9h-27.8v88.6h13.5v-31h14.2c4.6,0,8.4-.7,11.3-2,2.9-1.3,5-3.3,6.5-5.8,1.5-2.5,2.4-5.6,2.9-9.1.5-3.5.7-7.5.7-11.9s-.3-8.7-.8-12.3ZM150,519.8c-.4,2.3-1,4-1.9,5.2-.9,1.1-2,1.9-3.5,2.3-1.5.4-3.2.6-5.3.6h-10.7v-34.3h10.7c2.3,0,4.2.2,5.7.6,1.5.4,2.6,1.2,3.4,2.4.8,1.2,1.4,2.9,1.7,5.2.3,2.2.5,5.2.5,8.9s-.2,6.8-.6,9.1ZM188.1,570.4h-12.8v-65.7h11.7l.5,11.7h.8c.9-3.3,2-5.8,3.4-7.7,1.4-1.8,3.2-3.2,5.3-3.9,2.1-.8,4.6-1.2,7.5-1.2v12.9c-4,0-7.1.7-9.6,2.2-2.4,1.5-4.2,3.9-5.3,7.3-1.1,3.4-1.6,8.1-1.6,14v30.3ZM257.7,523.6c-.3-3.9-.8-7.1-1.5-9.7s-2-4.6-3.7-6.1c-1.7-1.5-3.9-2.6-6.7-3.2-2.8-.6-6.2-.9-10.4-.9s-8,.3-10.8.9c-2.8.6-5.1,1.7-6.8,3.2-1.7,1.5-2.9,3.5-3.7,6.1-.8,2.6-1.4,5.8-1.6,9.7-.3,3.9-.4,8.5-.4,14s.1,10.2.4,14c.3,3.9.8,7.1,1.6,9.7.8,2.6,2.1,4.6,3.7,6.1,1.7,1.5,3.9,2.6,6.8,3.2,2.8.6,6.4.9,10.8.9s7.6-.3,10.4-.9c2.8-.6,5-1.7,6.7-3.2,1.7-1.5,2.9-3.5,3.7-6.1.8-2.6,1.3-5.8,1.5-9.7.3-3.9.4-8.5.4-14s-.1-10.2-.4-14ZM245.2,550c-.1,3.1-.5,5.4-1.2,7-.6,1.6-1.7,2.6-3,3.2-1.4.5-3.3.8-5.8.8s-4.6-.3-5.9-.8c-1.4-.5-2.4-1.6-3-3.2-.6-1.6-1-3.9-1.2-7-.1-3.1-.2-7.2-.2-12.4s0-9.3.2-12.4c.1-3.1.5-5.4,1.2-7,.6-1.6,1.7-2.6,3-3.2,1.4-.5,3.3-.8,5.8-.8s4.6.3,5.9.8c1.4.5,2.4,1.6,3,3.2.6,1.6,1,3.9,1.2,7,.1,3.1.2,7.2.2,12.4s0,9.3-.2,12.4ZM299.5,515.3h-11.5v55.1h-12.9v-55.1h-8.9v-10.6h8.9v-8.1c0-4,.2-7.4.6-10,.4-2.7,1.2-4.8,2.2-6.4,1-1.6,2.5-2.8,4.3-3.6,1.8-.8,4.2-1.3,7-1.5,2.8-.2,6.2-.3,10.2-.3v9.5c-2.4,0-4.3,0-5.8.3-1.5.2-2.6.6-3.4,1.2-.8.6-1.4,1.6-1.7,3-.3,1.3-.5,3.2-.5,5.5v10.6h11.5v10.6ZM351.8,537.6c0-4.8,0-9.1-.2-12.8-.1-3.7-.5-6.9-1.2-9.6-.6-2.7-1.7-4.8-3.3-6.5-1.5-1.7-3.7-2.9-6.3-3.7-2.7-.8-6.1-1.2-10.4-1.2s-9.5.6-12.6,1.8c-3.1,1.2-5.4,3.1-7,5.7-1.5,2.6-2.5,6.1-2.9,10.4-.4,4.3-.6,9.7-.6,16s.1,9,.3,12.7c.2,3.7.7,6.9,1.5,9.5.8,2.6,2.1,4.8,3.8,6.5,1.7,1.7,4,3,7,3.8,2.9.8,6.7,1.2,11.3,1.2s4.6,0,6.9-.3c2.3-.2,4.5-.4,6.6-.7,2.1-.3,3.8-.6,5.2-1v-9.9c-2,.3-3.9.5-5.9.7-1.9.2-3.7.4-5.3.5-1.6,0-3.2.1-4.8.1-3.2,0-5.7-.2-7.5-.6-1.8-.4-3.2-1.2-4.2-2.6-.9-1.3-1.6-3.3-1.9-5.9-.3-2.6-.5-6.1-.5-10.4h31.8v-3.9ZM320,533c0-4.1.1-7.4.3-9.9.2-2.5.7-4.4,1.4-5.7.7-1.3,1.7-2.2,3.2-2.6,1.4-.4,3.2-.6,5.3-.6s3.7.2,5,.6c1.2.4,2.2,1.2,2.8,2.4.6,1.2,1.1,3.1,1.4,5.7.3,2.5.4,5.9.4,10.2h-19.7ZM391,570.5c-2.5.6-5.5,1-9,1s-4.1,0-6.3-.3c-2.2-.2-4.4-.4-6.6-.6-2.1-.3-4-.6-5.7-.9v-9.8c1.3.2,2.6.3,3.9.5,1.3.2,2.6.3,3.9.4,1.3,0,2.6.2,4,.2,1.4,0,2.7,0,4.1,0,2.8,0,5-.3,6.4-.8,1.5-.6,2.5-1.5,3-2.8.6-1.3.8-3.1.8-5.4s0-4.1-.3-5.2c-.2-1.2-.7-2-1.5-2.5-.8-.5-2.2-.9-4.2-1.2l-12.1-1.8c-2.4-.4-4.3-1.3-5.8-2.5-1.5-1.2-2.5-3.2-3.1-5.7-.6-2.6-.9-5.9-.9-9.9s.4-6.9,1.3-9.4c.9-2.5,2.2-4.5,4-6,1.8-1.5,4-2.6,6.6-3.2,2.6-.6,5.6-.9,9.1-.9s3.9,0,5.9.3c2.1.2,4,.4,5.9.6,1.8.3,3.4.6,4.6.9v9.9c-1.5-.3-3-.6-4.6-.8-1.6-.2-3.2-.3-4.9-.4-1.7,0-3.5-.1-5.3-.1s-4.3.2-5.8.7c-1.5.5-2.5,1.3-3.2,2.5-.7,1.2-1,3-1,5.4s.1,3.7.3,4.8c.2,1.2.7,2,1.5,2.5.8.5,2,.9,3.6,1.2l11.1,1.5c2.1.3,3.9.8,5.7,1.7,1.7.9,3.1,2.6,4.1,5.1,1,2.5,1.5,6.5,1.5,11.8s-.4,7.1-1.2,9.6c-.8,2.5-2,4.6-3.7,6.2-1.7,1.6-3.8,2.7-6.2,3.3ZM446.4,567.2c-1.7,1.6-3.8,2.7-6.2,3.3-2.5.6-5.5,1-9,1s-4.1,0-6.3-.3c-2.2-.2-4.4-.4-6.6-.6-2.1-.3-4-.6-5.7-.9v-9.8c1.3.2,2.6.3,3.9.5,1.3.2,2.6.3,3.9.4,1.3,0,2.6.2,4,.2,1.4,0,2.7,0,4.1,0,2.8,0,5-.3,6.4-.8,1.5-.6,2.5-1.5,3-2.8.6-1.3.8-3.1.8-5.4s0-4.1-.3-5.2c-.2-1.2-.7-2-1.5-2.5-.8-.5-2.2-.9-4.2-1.2l-12.1-1.8c-2.4-.4-4.3-1.3-5.8-2.5-1.5-1.2-2.5-3.2-3.1-5.7-.6-2.6-.9-5.9-.9-9.9s.4-6.9,1.3-9.4c.9-2.5,2.2-4.5,4-6,1.8-1.5,4-2.6,6.6-3.2,2.6-.6,5.6-.9,9.1-.9s3.9,0,5.9.3c2.1.2,4,.4,5.9.6,1.8.3,3.4.6,4.6.9v9.9c-1.5-.3-3-.6-4.6-.8-1.6-.2-3.2-.3-4.9-.4-1.7,0-3.5-.1-5.3-.1s-4.3.2-5.8.7c-1.5.5-2.5,1.3-3.2,2.5-.7,1.2-1,3-1,5.4s.1,3.7.3,4.8c.2,1.2.7,2,1.5,2.5.8.5,2,.9,3.6,1.2l11.1,1.5c2.1.3,3.9.8,5.7,1.7,1.7.9,3.1,2.6,4.1,5.1,1,2.5,1.5,6.5,1.5,11.8s-.4,7.1-1.2,9.6c-.8,2.5-2,4.6-3.7,6.2ZM475.8,570.4h-12.8v-65.7h12.8v65.7ZM462.8,474.7h13.1v13h-13.1v-13ZM534.3,523.6c-.3-3.9-.8-7.1-1.5-9.7s-2-4.6-3.7-6.1c-1.7-1.5-3.9-2.6-6.7-3.2-2.8-.6-6.2-.9-10.4-.9s-8,.3-10.8.9c-2.8.6-5.1,1.7-6.8,3.2-1.7,1.5-2.9,3.5-3.7,6.1-.8,2.6-1.4,5.8-1.6,9.7-.3,3.9-.4,8.5-.4,14s.1,10.2.4,14c.3,3.9.8,7.1,1.6,9.7.8,2.6,2.1,4.6,3.7,6.1,1.7,1.5,3.9,2.6,6.8,3.2,2.8.6,6.4.9,10.8.9s7.6-.3,10.4-.9c2.8-.6,5-1.7,6.7-3.2,1.7-1.5,2.9-3.5,3.7-6.1.8-2.6,1.3-5.8,1.5-9.7.3-3.9.4-8.5.4-14s-.1-10.2-.4-14ZM521.7,550c-.1,3.1-.5,5.4-1.2,7-.6,1.6-1.7,2.6-3,3.2-1.4.5-3.3.8-5.8.8s-4.6-.3-5.9-.8c-1.4-.5-2.4-1.6-3-3.2-.6-1.6-1-3.9-1.2-7-.1-3.1-.2-7.2-.2-12.4s0-9.3.2-12.4c.1-3.1.5-5.4,1.2-7,.6-1.6,1.7-2.6,3-3.2,1.4-.5,3.3-.8,5.8-.8s4.6.3,5.9.8c1.4.5,2.4,1.6,3,3.2.6,1.6,1,3.9,1.2,7,.1,3.1.2,7.2.2,12.4s0,9.3-.2,12.4ZM575,515.7c-1.2-.4-2.8-.6-4.9-.6s-4.1.4-5.5,1.3c-1.3.9-2.3,2.2-2.9,3.9-.6,1.8-1,4-1.2,6.6-.2,2.6-.3,5.8-.3,9.5v34.1h-12.8v-65.7h11.7l.5,8.6h.8c.8-2.2,1.8-4,3.2-5.4,1.3-1.4,3-2.4,5-3.2,2-.7,4.4-1.1,7.1-1.1s6.2.5,8.4,1.5c2.1,1,3.8,2.5,4.9,4.5,1.1,2,1.9,4.6,2.3,7.6.4,3,.6,6.7.6,11v42.1h-12.9v-37.2c0-4.1,0-7.4-.3-9.7-.2-2.4-.6-4.1-1.2-5.3-.6-1.2-1.5-2-2.7-2.4ZM646.9,519.4c-.3-2.8-.9-5.3-1.8-7.3-.9-2-2.2-3.6-3.9-4.9-1.7-1.2-3.8-2.1-6.4-2.7-2.6-.6-5.9-.8-9.7-.8s-6.6.2-9.7.5c-3.1.3-6.2.8-9.2,1.5v9.8c2.1-.3,4.1-.5,5.9-.6,1.8-.2,3.5-.3,5-.4,1.5,0,3-.1,4.3-.1,2.7,0,5,.1,6.8.4,1.8.3,3.1.8,4.1,1.7.9.9,1.6,2.4,1.9,4.4.3,2,.5,4.7.5,8.2v3.9c-1.5,0-3-.2-4.4-.3-1.4,0-2.7-.1-3.9-.2-1.2,0-2.4,0-3.5,0h-3c-4.1,0-7.4.6-9.9,1.7-2.4,1.2-4.2,3.2-5.3,6-1.1,2.8-1.6,6.8-1.6,12s.6,8.5,1.7,11.3c1.1,2.8,2.9,4.9,5.2,6.2,2.4,1.3,5.4,1.9,9.2,1.9s4.5-.3,6.4-.8c2-.6,3.7-1.5,5.2-2.9,1.5-1.4,2.6-3.3,3.5-5.8h.9l.5,8.5h11.7v-41c0-3.9-.2-7.2-.5-10ZM634.6,544.8c0,2.5-.1,4.7-.4,6.8-.3,2-.7,3.7-1.3,5-.5,1.1-1.2,2-2,2.6-.8.6-1.8,1.1-2.9,1.3-1.1.2-2.4.3-3.9.3-2.4,0-4.2-.3-5.5-.8-1.2-.5-2.1-1.5-2.4-2.9-.4-1.4-.6-3.5-.6-6.1s.1-4.7.5-6.2c.3-1.5,1-2.5,2.1-3,1.1-.6,2.8-.8,5.2-.8h11.2v3.9ZM674.7,474.7v95.7h-12.8v-95.7h12.8ZM175.2,607.1h42.6v11.7h-29.1v26.3h25.2v11.6h-25.2v27.3h29.1v11.7h-42.6v-88.6ZM261.2,600v37.5h-.8c-.8-2.1-1.8-3.7-3.1-5-1.3-1.2-2.9-2.1-4.8-2.7-1.9-.6-4.1-.8-6.7-.8s-6.3.5-8.5,1.6c-2.2,1.1-4,2.9-5.3,5.4-1.3,2.5-2.3,6-2.8,10.4-.5,4.4-.8,9.9-.8,16.6s.3,12.1.8,16.5c.5,4.4,1.4,7.8,2.8,10.4,1.3,2.5,3.1,4.3,5.4,5.3,2.3,1,5.1,1.5,8.6,1.5s4.6-.3,6.5-.8c1.9-.6,3.6-1.5,5.1-2.9,1.5-1.4,2.5-3.3,3.2-5.8h.8l.5,8.5h11.8v-95.7h-12.8ZM261,672.6c-.1,2.6-.5,4.8-1,6.6-.5,2.3-1.5,3.9-2.8,4.8-1.4.9-3.3,1.4-5.8,1.4s-4-.2-5.3-.6c-1.3-.4-2.4-1.3-3.1-2.7-.7-1.4-1.2-3.7-1.4-6.8-.2-3.1-.3-7.3-.3-12.5s.1-9.4.4-12.4c.3-3,.7-5.3,1.4-6.8.7-1.5,1.7-2.4,3-2.8,1.3-.4,3-.6,5.2-.6s5,.6,6.4,1.8c1.5,1.2,2.4,3.3,2.8,6.2.3,1.4.5,3.2.6,5.5.1,2.3.2,5.2.2,8.6s0,7.7-.2,10.3ZM320.1,630h12.8v65.7h-11.8l-.4-8.6h-.8c-.8,2.3-1.9,4.2-3.3,5.6-1.4,1.4-3.1,2.4-5.2,3.1-2,.6-4.3,1-6.9,1s-6.2-.5-8.4-1.5c-2.1-1-3.8-2.5-4.9-4.5-1.1-2-1.9-4.6-2.3-7.7-.4-3.1-.6-6.8-.6-10.9v-42.1h12.8v37.2c0,4.2.1,7.5.4,10,.3,2.4.7,4.3,1.4,5.4.6,1.2,1.5,1.9,2.7,2.3,1.2.3,2.7.5,4.6.5s3.9-.3,5.2-1c1.3-.6,2.3-1.7,3-3.2.6-1.5,1.1-3.6,1.4-6.4.3-2.8.4-6.3.4-10.6v-34.1ZM376.3,685.8c1.8-.2,3.6-.5,5.2-.8v9.9c-2.2.6-4.5,1.1-6.9,1.4-2.4.3-4.8.5-7.4.5-3.9,0-7.1-.4-9.7-1.2-2.6-.8-4.7-2.1-6.2-3.8-1.6-1.7-2.8-3.9-3.5-6.6-.8-2.7-1.3-5.8-1.5-9.5-.3-3.7-.4-7.9-.4-12.8s.1-9.5.5-13.3c.3-3.8.9-7,1.7-9.6.9-2.6,2.1-4.7,3.7-6.4,1.6-1.6,3.7-2.8,6.2-3.5,2.5-.7,5.5-1.1,9.1-1.1s4.9.2,7.5.5c2.6.3,4.8.8,6.5,1.3v9.9c-1.6-.4-3.4-.7-5.2-.9-1.8-.2-3.7-.3-5.6-.3s-4.5.3-6.1.9c-1.6.6-2.8,1.7-3.5,3.3-.8,1.6-1.3,3.9-1.6,7-.3,3.1-.5,7.1-.5,12.1s.1,9.1.5,12.2c.3,3.1.9,5.5,1.7,7.1.8,1.6,2,2.7,3.6,3.2,1.6.5,3.6.8,6.1.8s4-.1,5.9-.3ZM433.7,644.7c-.3-2.8-.9-5.3-1.8-7.3-.9-2-2.2-3.6-3.9-4.9-1.7-1.2-3.8-2.1-6.4-2.7-2.6-.6-5.9-.8-9.7-.8s-6.6.2-9.7.5c-3.1.3-6.2.8-9.2,1.5v9.8c2.1-.3,4.1-.5,5.9-.6,1.8-.2,3.5-.3,5-.4,1.5,0,3-.1,4.3-.1,2.7,0,5,.1,6.8.4,1.8.3,3.1.8,4.1,1.7.9.9,1.6,2.4,1.9,4.4.3,2,.5,4.7.5,8.2v3.9c-1.5,0-3-.2-4.4-.3-1.4,0-2.7-.1-3.9-.2-1.2,0-2.4,0-3.5,0h-3c-4.1,0-7.4.6-9.9,1.7-2.4,1.2-4.2,3.2-5.3,6-1.1,2.8-1.6,6.8-1.6,12s.6,8.5,1.7,11.3c1.1,2.8,2.9,4.9,5.2,6.2,2.4,1.3,5.4,1.9,9.2,1.9s4.5-.3,6.4-.8c2-.6,3.7-1.5,5.2-2.9,1.5-1.4,2.6-3.3,3.5-5.8h.9l.5,8.5h11.7v-41c0-3.9-.2-7.2-.5-10ZM421.4,670c0,2.5-.1,4.7-.4,6.8-.3,2-.7,3.7-1.3,5-.5,1.1-1.2,2-2,2.6-.8.6-1.8,1.1-2.9,1.3-1.1.2-2.4.3-3.9.3-2.4,0-4.2-.3-5.5-.8-1.2-.5-2.1-1.5-2.4-2.9-.4-1.4-.6-3.5-.6-6.1s.1-4.7.5-6.2c.3-1.5,1-2.5,2.1-3,1.1-.6,2.8-.8,5.2-.8h11.2v3.9ZM465.1,630h10.7v10.6h-10.7v55.1h-13v-55.1h-8.8v-10.6h8.8v-19.1h13v19.1ZM486,630h12.8v65.7h-12.8v-65.7ZM485.7,600h13.1v13h-13.1v-13ZM557.2,648.8c-.3-3.9-.8-7.1-1.5-9.7-.8-2.6-2-4.6-3.7-6.1-1.7-1.5-3.9-2.6-6.7-3.2-2.8-.6-6.2-.9-10.4-.9s-8,.3-10.8.9c-2.8.6-5.1,1.7-6.8,3.2-1.7,1.5-2.9,3.5-3.7,6.1-.8,2.6-1.4,5.8-1.6,9.7-.3,3.9-.4,8.5-.4,14s.1,10.2.4,14c.3,3.9.8,7.1,1.6,9.7.8,2.6,2.1,4.6,3.7,6.1,1.7,1.5,3.9,2.6,6.8,3.2,2.8.6,6.4.9,10.8.9s7.6-.3,10.4-.9c2.8-.6,5-1.7,6.7-3.2,1.7-1.5,2.9-3.5,3.7-6.1.8-2.6,1.3-5.8,1.5-9.7.3-3.9.4-8.5.4-14s-.1-10.2-.4-14ZM544.6,675.2c-.1,3.1-.5,5.4-1.2,7-.6,1.6-1.7,2.6-3,3.2-1.4.5-3.3.8-5.8.8s-4.6-.3-5.9-.8c-1.4-.5-2.4-1.6-3-3.2-.6-1.6-1-3.9-1.2-7s-.2-7.2-.2-12.4,0-9.3.2-12.4.5-5.4,1.2-7c.6-1.6,1.7-2.6,3-3.2,1.4-.5,3.3-.8,5.8-.8s4.6.3,5.9.8c1.4.5,2.4,1.6,3,3.2.6,1.6,1,3.9,1.2,7,.1,3.1.2,7.2.2,12.4s0,9.3-.2,12.4ZM614.3,642.6c.4,3,.6,6.7.6,11v42.1h-12.9v-37.2c0-4.1,0-7.4-.3-9.7-.2-2.4-.6-4.1-1.2-5.3-.6-1.2-1.5-2-2.7-2.4-1.2-.4-2.8-.6-4.9-.6s-4.1.4-5.5,1.3c-1.3.9-2.3,2.2-2.9,3.9-.6,1.8-1,4-1.2,6.6-.2,2.6-.3,5.8-.3,9.5v34.1h-12.8v-65.7h11.7l.5,8.6h.8c.8-2.2,1.8-4,3.2-5.4,1.3-1.4,3-2.4,5-3.2,2-.7,4.4-1.1,7.1-1.1s6.2.5,8.4,1.5c2.1,1,3.8,2.5,4.9,4.5,1.1,2,1.9,4.6,2.3,7.6ZM274.5,431.1c-.2-2.8-.3-6.1-.3-9.8s0-7.1.3-9.9c.2-2.8.6-5.1,1.1-7,.6-1.9,1.4-3.4,2.5-4.5,1.1-1.1,2.5-1.9,4.3-2.4,1.8-.5,4-.7,6.6-.7s2,0,3,.1c1,0,2,.2,2.9.4.9.2,1.6.4,2.2.6v7.1c-.8,0-1.6-.2-2.4-.3-.8,0-1.5-.1-2.1-.2-.7,0-1.2,0-1.7,0-1.4,0-2.6.1-3.5.3s-1.6.6-2.2,1.2c-.6.6-1,1.5-1.2,2.8-.2,1.2-.4,2.9-.5,4.9,0,2-.1,4.6-.1,7.6s0,5.6.1,7.6c0,2,.2,3.6.5,4.9.2,1.2.6,2.2,1.1,2.8.5.6,1.3,1,2.2,1.2.9.2,2.1.3,3.6.3s2.4,0,3.5-.1c1.1,0,2-.2,2.9-.3v7.1c-.7.2-1.5.4-2.4.6-1,.2-1.9.3-3,.4-1,0-2,.1-2.9.1-2.6,0-4.9-.3-6.6-.8-1.8-.5-3.2-1.3-4.3-2.4-1.1-1.1-1.9-2.6-2.4-4.5-.6-1.9-.9-4.2-1.1-7ZM327.3,419.9c-.1-2.1-.4-3.8-.9-5.2-.4-1.4-1.1-2.5-2.1-3.3-1-.8-2.2-1.4-3.8-1.7-1.6-.3-3.5-.5-5.8-.5s-4.4.2-6,.5c-1.6.3-2.8.9-3.8,1.7-1,.8-1.6,1.9-2.1,3.3-.4,1.4-.7,3.1-.9,5.2-.2,2.1-.2,4.6-.2,7.6s0,5.4.2,7.5c.2,2.1.5,3.8.9,5.3.4,1.4,1.1,2.5,2.1,3.3,1,.8,2.2,1.4,3.8,1.7,1.6.3,3.6.5,6,.5s4.3-.2,5.8-.5c1.6-.3,2.8-.9,3.8-1.7,1-.8,1.6-1.9,2.1-3.3.4-1.4.7-3.2.9-5.3.1-2.1.2-4.6.2-7.5s0-5.5-.2-7.6ZM318.9,433.6c0,1.5-.2,2.7-.5,3.4-.3.8-.7,1.3-1.3,1.5-.6.2-1.4.3-2.5.3s-1.9-.1-2.5-.3c-.6-.2-1-.7-1.3-1.5-.3-.8-.4-1.9-.5-3.4,0-1.5,0-3.6,0-6.1s0-4.7,0-6.2c0-1.5.2-2.6.5-3.4.3-.8.7-1.3,1.3-1.5.6-.2,1.4-.3,2.5-.3s1.9.1,2.5.3c.6.2,1,.7,1.3,1.5.3.8.5,1.9.5,3.4,0,1.5.1,3.6.1,6.1s0,4.6-.1,6.1ZM341.8,445.2h-8.6v-51.7h8.6v51.7ZM357.1,445.2h-8.6v-51.7h8.6v51.7ZM387.8,427.5c0-2.6,0-4.9-.1-6.9,0-2-.3-3.7-.7-5.2-.3-1.4-1-2.6-1.8-3.5-.9-.9-2-1.6-3.6-2-1.5-.4-3.5-.7-5.9-.7s-5.4.3-7.1,1c-1.7.7-3,1.7-3.8,3.2-.8,1.4-1.4,3.3-1.6,5.7-.2,2.3-.3,5.2-.3,8.5s0,4.8.2,6.8c.1,2,.4,3.7.8,5.2.4,1.4,1.1,2.6,2.1,3.6,1,.9,2.3,1.6,3.9,2.1,1.6.5,3.8.7,6.4.7s2.6,0,3.9-.1c1.3,0,2.5-.2,3.7-.4,1.2-.2,2.1-.3,2.9-.5v-6.4c-1.1,0-2.2.2-3.2.3-1,0-2,.2-2.9.2-.9,0-1.7,0-2.5,0-1.6,0-2.8,0-3.8-.3-.9-.2-1.6-.6-2.1-1.2-.5-.6-.8-1.5-.9-2.7-.1-1.2-.2-2.8-.2-4.9h16.4v-2.4ZM371.4,424.6c0-1.9,0-3.4.1-4.6,0-1.2.3-2,.6-2.6.3-.6.7-1,1.3-1.2.6-.2,1.4-.3,2.3-.3s1.6,0,2.2.3c.6.2,1,.6,1.2,1.1.3.6.4,1.5.5,2.6,0,1.2.1,2.7.1,4.7h-8.4ZM410.3,409.7l-.3,4.4h-.6c-.4-1.3-.9-2.3-1.7-3-.7-.7-1.6-1.2-2.6-1.5-1-.3-2.1-.5-3.2-.5-1.7,0-3.2.3-4.4.8-1.2.5-2.1,1.4-2.8,2.7-.7,1.3-1.2,3.1-1.5,5.5-.3,2.4-.5,5.4-.5,9.1s.2,6.4.5,8.7c.3,2.3.8,4.1,1.5,5.5.7,1.4,1.6,2.3,2.8,2.9,1.2.6,2.7.9,4.4.9s2.4-.2,3.4-.5c1-.3,1.8-.8,2.4-1.5.7-.7,1.2-1.5,1.6-2.5h.6v2.3c0,2,0,3.6-.2,4.8-.1,1.2-.4,2.2-.8,2.9-.4.7-1.1,1.1-2.1,1.4-1,.2-2.3.3-4.1.3s-2.3,0-3.2,0c-.9,0-1.7,0-2.5,0s-1.5,0-2.2,0v6.3c.9.2,1.8.3,2.9.5,1,.1,2.2.2,3.3.2,1.2,0,2.4,0,3.7,0,3.3,0,5.9-.4,7.7-1.1,1.9-.7,3.2-1.9,4.1-3.4.9-1.5,1.4-3.5,1.6-5.8.2-2.3.3-5.1.3-8.2v-31.1h-8.1ZM409.7,431.9c0,1.3-.2,2.3-.4,3-.2,1.1-.6,1.9-1.2,2.3s-1.4.6-2.6.6-1.7,0-2.3-.3c-.6-.2-1-.6-1.3-1.3-.3-.6-.5-1.7-.6-3.1,0-1.4-.1-3.4-.1-5.9s0-4.4.1-5.8c0-1.4.3-2.5.6-3.2.3-.7.7-1.1,1.3-1.4s1.3-.3,2.3-.3,2.1.3,2.7.8c.6.5,1,1.4,1.2,2.8,0,.6.2,1.5.2,2.8,0,1.3.1,2.7.1,4.4s0,3.4-.1,4.7ZM449,427.5c0-2.6,0-4.9-.1-6.9,0-2-.3-3.7-.7-5.2-.3-1.4-1-2.6-1.8-3.5-.9-.9-2-1.6-3.6-2-1.5-.4-3.5-.7-5.9-.7s-5.4.3-7.1,1c-1.7.7-3,1.7-3.8,3.2-.8,1.4-1.4,3.3-1.6,5.7-.2,2.3-.3,5.2-.3,8.5s0,4.8.2,6.8c.1,2,.4,3.7.8,5.2.4,1.4,1.1,2.6,2.1,3.6,1,.9,2.3,1.6,3.9,2.1,1.6.5,3.8.7,6.4.7s2.6,0,3.9-.1c1.3,0,2.5-.2,3.7-.4,1.2-.2,2.1-.3,2.9-.5v-6.4c-1.1,0-2.2.2-3.2.3-1,0-2,.2-2.9.2-.9,0-1.7,0-2.5,0-1.6,0-2.8,0-3.8-.3-.9-.2-1.6-.6-2.1-1.2-.5-.6-.8-1.5-.9-2.7-.1-1.2-.2-2.8-.2-4.9h16.4v-2.4ZM432.6,424.6c0-1.9,0-3.4.1-4.6,0-1.2.3-2,.6-2.6.3-.6.7-1,1.3-1.2.6-.2,1.4-.3,2.3-.3s1.6,0,2.2.3c.6.2,1,.6,1.2,1.1.3.6.4,1.5.5,2.6,0,1.2.1,2.7.1,4.7h-8.4ZM492.5,419.9c-.1-2.1-.4-3.8-.9-5.2-.4-1.4-1.1-2.5-2.1-3.3-1-.8-2.2-1.4-3.8-1.7-1.6-.3-3.5-.5-5.8-.5s-4.4.2-6,.5c-1.6.3-2.8.9-3.8,1.7-1,.8-1.6,1.9-2.1,3.3-.4,1.4-.7,3.1-.9,5.2-.2,2.1-.2,4.6-.2,7.6s0,5.4.2,7.5c.2,2.1.5,3.8.9,5.3.4,1.4,1.1,2.5,2.1,3.3,1,.8,2.2,1.4,3.8,1.7,1.6.3,3.6.5,6,.5s4.3-.2,5.8-.5c1.6-.3,2.8-.9,3.8-1.7,1-.8,1.6-1.9,2.1-3.3.4-1.4.7-3.2.9-5.3.1-2.1.2-4.6.2-7.5s0-5.5-.2-7.6ZM484.1,433.6c0,1.5-.2,2.7-.5,3.4-.3.8-.7,1.3-1.3,1.5-.6.2-1.4.3-2.5.3s-1.9-.1-2.5-.3c-.6-.2-1-.7-1.3-1.5-.3-.8-.4-1.9-.5-3.4,0-1.5,0-3.6,0-6.1s0-4.7,0-6.2c0-1.5.2-2.6.5-3.4.3-.8.7-1.3,1.3-1.5.6-.2,1.4-.3,2.5-.3s1.9.1,2.5.3c.6.2,1,.7,1.3,1.5.3.8.5,1.9.5,3.4,0,1.5.1,3.6.1,6.1s0,4.6-.1,6.1ZM500.8,416.6h-4.5v-6.9h4.5v-3.1c0-2.4.1-4.4.3-6,.2-1.6.6-2.8,1.2-3.8.6-1,1.4-1.7,2.5-2.2,1.1-.5,2.5-.8,4.2-1,1.7-.1,3.9-.2,6.4-.2v6.2c-1.3,0-2.3,0-3.1.1-.8,0-1.4.3-1.8.6-.4.3-.7.8-.9,1.6-.2.7-.2,1.7-.2,3v4.7h6v6.9h-6v28.6h-8.6v-28.6ZM394.8,203.7l120.6,55.7v44.2s-120.6-55.7-120.6-55.7v-44.2Z"/>
  <path class="st0" d="M394.8,115.2v88.5l-120.6,55.7,120.6-144.2ZM228.2,812.5h23.3v61.7h13.4v-61.7h23.3l2.1-12.8h-62v12.8ZM218.6,853.8c0,14.9-12.3,21.6-24.5,21.6s-15.3-2.7-18.6-4.3h-.3v-15.4l.9.7c3.6,2.9,10.3,6.3,17.5,6.3s10.8-3.2,10.8-8.2-2-5.7-6.6-8.5l-11.5-7c-8.6-5-12.2-10.8-12.2-19.5s6.5-20.9,24.8-20.9,12.5,2.1,16,3.8h.3v14.9l-.8-.7c-4.2-3.3-10.4-5.4-15.7-5.4s-10.4,3-10.4,7.8,1.8,5.3,5.8,7.8l11.2,7c9.3,5.5,13.2,11.5,13.2,20ZM316.5,812.5v15.4h21.5v12.8h-21.5v20.6h31.2l-2.1,12.8h-42.5v-74.5h41.5l2.1,12.8h-30.2ZM451.2,812.5v15.4h21.5v12.8h-21.5v20.6h31.2l-2.1,12.8h-42.5v-74.5h41.5l2.1,12.8h-30.2ZM408.3,799.6h14.8l-24.6,74.5h-14.4l-24.6-74.5h14.8l17,58,16.9-58ZM618.2,853.8c0,14.9-12.3,21.6-24.5,21.6s-15.3-2.7-18.6-4.3h-.3v-15.4l.9.7c3.6,2.9,10.3,6.3,17.5,6.3s10.8-3.2,10.8-8.2-2-5.7-6.6-8.5l-11.5-7c-8.6-5-12.2-10.8-12.2-19.5s6.5-20.9,24.8-20.9,12.5,2.1,16,3.8h.3v14.9l-.8-.7c-4.2-3.3-10.4-5.4-15.7-5.4s-10.4,3-10.4,7.8,1.8,5.3,5.8,7.8l11.2,7c9.3,5.5,13.2,11.5,13.2,20ZM556.9,799.6v74.5h-13.1l-27.2-46.5v46.5h-13.4v-65.1l-6-9.4h17.6l28.7,49.2v-49.2h13.4Z"/>
  <path class="st2" d="M394.8,292l-120.6,55.7v-44.2l120.6-55.7v44.2ZM331.6,899.5l-.6-3.6h-10.7v18.9h10.7l.6-3.6h-7.6v-4.6h5.4v-3.6h-5.4v-3.6h7.6ZM259.2,895.9h13.6l-.6,3.6h-4.7v15.3h-3.7v-15.3h-4.7v-3.6ZM300.2,895.9h13.6l-.6,3.6h-4.7v15.3h-3.7v-15.3h-4.7v-3.6ZM222.5,909.5c0,2.9-2,5.6-6.3,5.6s-3.6-.5-4.8-1v-4.2c1,.8,2.8,1.6,4.6,1.6s2.5-.9,2.5-1.9-.5-1.4-1.4-2l-2.8-1.8c-2.5-1.4-3.2-2.9-3.2-5.1s1.7-5.4,6.5-5.4,2.9.4,4,.9v4c-1-.7-2.6-1.4-4.2-1.4s-2.3.9-2.3,1.8.4,1.3,1.2,1.8l2.9,1.7c2.5,1.4,3.4,3.1,3.4,5.2ZM175.2,895.9h3.7v18.9h-3.7v-18.9ZM199.6,895.9h3.7v18.9h-3.7l-8.1-11.3v11.3h-3.7v-16.6l-1.3-2.1v-.2h4.4l8.7,12.5v-12.5ZM248.4,895.9h3.7v18.9h-3.7v-18.9ZM228.4,895.9h13.6l-.6,3.6h-4.7v15.3h-3.7v-15.3h-4.7v-3.6ZM358.7,895.5c-5.6,0-9.8,4.2-9.8,9.8s4.2,9.8,9.8,9.8,9.8-4.2,9.8-9.8-4.3-9.8-9.8-9.8ZM358.7,911.4c-3.4,0-6-2.7-6-6s2.6-6.1,6-6.1,6,2.7,6,6.1-2.6,6-6,6ZM289.7,895.9h3.7v11.9c0,4.6-2.8,7.4-7.2,7.4s-7.2-2.8-7.2-7.4v-11.9h3.7v12.2c0,2,1.3,3.5,3.4,3.5s3.4-1.5,3.4-3.5v-12.2ZM522.2,895.5c-5.6,0-9.8,4.2-9.8,9.8s4.2,9.8,9.8,9.8,9.8-4.2,9.8-9.8-4.3-9.8-9.8-9.8ZM522.2,911.4c-3.4,0-6-2.7-6-6s2.6-6.1,6-6.1,6,2.7,6,6.1-2.6,6-6,6ZM542.1,911.2h7.6l-.6,3.6h-10.7v-18.9h3.7v15.3ZM564.3,895.5c-5.6,0-9.8,4.2-9.8,9.8s4.2,9.8,9.8,9.8,9.8-4.2,9.8-9.8-4.3-9.8-9.8-9.8ZM564.3,911.4c-3.4,0-6-2.7-6-6s2.6-6.1,6-6.1,6,2.7,6,6.1-2.6,6-6,6ZM618.2,895.9l-6.6,12.4v6.5h-3.7v-6.5l-6.7-12.4h4.2l4.3,8.7,4.3-8.7h4.2ZM589.8,904.9h7.1v8.1c-.3.3-.8.6-1.6,1s-1.6.6-2.5.8c-.9.2-1.7.3-2.5.3-2,0-3.8-.4-5.4-1.2-1.5-.8-2.7-1.9-3.6-3.3-.8-1.4-1.3-3-1.3-4.8s.4-4.1,1.3-5.7c.9-1.6,2.1-2.7,3.6-3.5,1.5-.8,3.1-1.2,5-1.2s2.3.1,3.3.4c1,.3,1.9.6,2.7,1l-1.2,3.5c-.5-.3-1.2-.5-2.1-.8-.9-.2-1.6-.4-2.2-.4-2.1,0-3.7.5-4.8,1.6-1.1,1-1.7,2.6-1.7,4.6s.3,2.2.8,3.1c.5.9,1.3,1.6,2.3,2,1,.5,2.1.7,3.3.7s2.1-.2,2.6-.5v-2.5h-3.3v-3.4ZM405.2,895.9h13.6l-.6,3.6h-4.7v15.3h-3.7v-15.3h-4.7v-3.6ZM376.6,895.9h11.3l-.6,3.6h-7v3.6h6.4v3.6h-6.4v8.2h-3.7v-18.9ZM429.7,899.5v3.6h5.4v3.6h-5.4v4.6h7.6l-.6,3.6h-10.7v-18.9h10.7l.6,3.6h-7.6ZM502.3,895.9h3.7v18.9h-3.7l-8.1-11.3v11.3h-3.7v-16.6l-1.5-2.3h4.6l8.7,12.5v-12.5ZM477.9,895.9h3.7v18.9h-3.7v-7.7h-9v7.7h-3.7v-18.9h3.7v7.6h9v-7.6ZM453.1,895.5c1.6,0,3.2.4,4.4,1v4.3c-1-1-2.6-1.6-4.4-1.6-3.4,0-5.9,2.7-5.9,6.1s2.5,6,5.9,6,3.4-.6,4.4-1.5v4.3c-1.2.6-2.8,1-4.4,1-5.6,0-9.8-4.2-9.8-9.8s4.2-9.8,9.8-9.8ZM175.2,749.4h439.7v-3.7H175.2v3.7Z"/>
</svg>