<?xml version="1.0" encoding="UTF-8"?>
<svg id="main" xmlns="http://www.w3.org/2000/svg" version="1.1" viewBox="0 0 527.3 730.3">
  <!-- Generator: Adobe Illustrator 29.7.1, SVG Export Plug-In . SVG Version: 2.1.1 Build 8)  -->
  <defs>
    <style>
      .st0 {
        fill: #fff;
      }
    </style>
  </defs>
  <polygon class="st0" points="260.5 254.5 165.5 298.4 165.5 263.6 260.5 219.7 260.5 254.5"/>
  <path class="st0" d="M260.5,184.9l95,43.9v34.8s-95-43.9-95-43.9v-34.8ZM175,515.4c3.4-.3,6.7-.7,9.9-1.2,3.1-.5,5.8-1.1,8.1-1.9v-20.2c-3.1.6-6.5,1.1-10.2,1.4-3.8.3-7.9.5-12.4.5s-10.5-.4-14.1-1.3c-3.6-.9-6.5-2.5-8.7-4.9-2.2-2.4-3.7-5.9-4.6-10.6-.9-4.7-1.4-10.7-1.7-18.2-.2-7.5-.4-16.7-.4-27.8s.1-20.3.4-27.8c.2-7.5.8-13.5,1.7-18.2.9-4.7,2.4-8.2,4.6-10.6,2.2-2.4,5.1-4.1,8.7-4.9,3.6-.9,8.3-1.3,14.1-1.3s4.3,0,6.6.2c2.3.2,4.8.4,7.5.6,2.6.2,5.3.6,8.1,1.1v-20.2c-1.9-.8-4.4-1.4-7.5-1.9-3.1-.5-6.3-.9-9.8-1.2-3.5-.3-6.8-.5-10-.5-9,0-16.5.8-22.5,2.4-6,1.6-10.8,4.3-14.4,8.2-3.6,3.9-6.3,9-8.2,15.5-1.8,6.5-3.1,14.6-3.9,24.2-.7,9.6-1.1,21.1-1.1,34.4s.3,24.8,1,34.6c.6,9.7,1.9,17.8,3.9,24.2,1.9,6.4,4.7,11.5,8.3,15.3,3.6,3.8,8.4,6.5,14.4,8.2,6,1.7,13.5,2.5,22.5,2.5s6.3-.2,9.8-.5ZM241.6,513.9v-58h26.5c8.7,0,15.7-1.2,21.1-3.7,5.4-2.5,9.4-6.1,12.2-10.8,2.7-4.7,4.5-10.4,5.4-17,.9-6.6,1.3-14,1.3-22.2s-.5-16.3-1.4-23c-1-6.7-2.8-12.3-5.5-16.9-2.7-4.6-6.7-8.1-12-10.5-5.3-2.4-12.2-3.6-20.7-3.6h-52v165.7h25.3ZM241.6,370.1h20c4.3,0,7.9.4,10.6,1.2,2.7.8,4.9,2.3,6.4,4.6,1.5,2.2,2.6,5.5,3.1,9.6.6,4.2.8,9.7.8,16.6s-.4,12.8-1.1,17.1c-.7,4.3-1.9,7.5-3.5,9.6-1.6,2.1-3.8,3.5-6.5,4.2-2.7.7-6,1.1-9.9,1.1h-20v-64.1ZM409.9,513.9v-21.9h-54.4v-51.1h47.2v-21.7h-47.2v-49.1h54.4v-21.9h-79.7v165.7h79.7Z"/>
  <path class="st0" d="M260.5,115.2v69.7l-95,43.9,95-113.6ZM151.4,573.1h15.6v41.3h8.9v-41.3h15.6l1.4-8.6h-41.4v8.6ZM144.9,600.7c0,10-8.2,14.4-16.4,14.4s-10.3-1.8-12.4-2.9h-.2v-10.3l.6.5c2.4,1.9,6.9,4.2,11.7,4.2s7.2-2.2,7.2-5.5-1.4-3.8-4.4-5.7l-7.7-4.7c-5.7-3.3-8.2-7.2-8.2-13s4.4-14,16.6-14,8.4,1.4,10.7,2.6h.2v10l-.6-.4c-2.8-2.2-6.9-3.6-10.5-3.6s-6.9,2-6.9,5.2,1.2,3.5,3.9,5.2l7.5,4.7c6.2,3.7,8.8,7.7,8.8,13.4ZM210.4,573.1v10.3h14.4v8.6h-14.4v13.8h20.9l-1.4,8.6h-28.4v-49.8h27.7l1.4,8.6h-20.2ZM300.5,573.1v10.3h14.4v8.6h-14.4v13.8h20.9l-1.4,8.6h-28.4v-49.8h27.7l1.4,8.6h-20.2ZM271.8,564.5h9.9l-16.4,49.8h-9.7l-16.4-49.8h9.9l11.4,38.8,11.3-38.8ZM412.1,600.7c0,10-8.2,14.4-16.4,14.4s-10.3-1.8-12.4-2.9h-.2v-10.3l.6.5c2.4,1.9,6.9,4.2,11.7,4.2s7.2-2.2,7.2-5.5-1.4-3.8-4.4-5.7l-7.7-4.7c-5.7-3.3-8.2-7.2-8.2-13s4.4-14,16.6-14,8.4,1.4,10.7,2.6h.2v10l-.6-.4c-2.8-2.2-6.9-3.6-10.5-3.6s-6.9,2-6.9,5.2,1.2,3.5,3.9,5.2l7.5,4.7c6.2,3.7,8.8,7.7,8.8,13.4ZM371.1,564.5v49.8h-8.8l-18.2-31.1v31.1h-8.9v-43.5l-4-6.3h11.8l19.2,32.9v-32.9h8.9Z"/>
</svg>