<?xml version="1.0" encoding="UTF-8"?>
<svg id="main" xmlns="http://www.w3.org/2000/svg" version="1.1" viewBox="0 0 1694.6 576.1">
  <!-- Generator: Adobe Illustrator 29.7.1, SVG Export Plug-In . SVG Version: 2.1.1 Build 8)  -->
  <defs>
    <style>
      .st0 {
        fill: #a32638;
      }

      .st1 {
        fill: #2d3d45;
      }

      .st2 {
        fill: #7f7f7f;
      }
    </style>
  </defs>
  <path class="st0" d="M241.2,111.5v92.5l-126.1,58.2,126.1-150.8ZM441.8,424.8c-2.2-1.1-5-1.9-8-1.9-9.1,0-12.4,5.4-12.4,10.4s1.5,7,6.1,9.7l5.8,3.6c2.4,1.5,3.5,2.9,3.5,4.6,0,2.5-2,4.5-5.8,4.5s-7.1-1.7-9.1-3.2v7c2.3,1.1,5.6,2.1,9.4,2.1,8.3,0,12.2-5.1,12.2-10.7s-1.8-7.1-6.6-10l-5.7-3.6c-2-1.3-3.1-2.6-3.1-4.2,0-2.5,2-4.2,5.6-4.2s6.2,1.3,8.1,2.8v-6.8ZM466.7,460.9h6.3v-31.4h11.8v-6h-29.9v6h11.8v31.4ZM519.3,460.9v-6h-14.4v-9.8h13.3v-6h-13.3v-9.6h14.4v-6h-20.7v37.4h20.7ZM544.9,460.9h7l14-37.4h-7l-10.5,30.1-10.5-30.1h-7l14,37.4ZM599.5,460.9v-6h-14.4v-9.8h13.3v-6h-13.3v-9.6h14.4v-6h-20.7v37.4h20.7ZM639.7,460.9h6.3v-37.4h-6.3v26.6l-18.9-26.6h-7.5v.5l2.5,4v33h6.3v-24.2l17.6,24.2ZM681.6,424.8c-2.2-1.1-5-1.9-8-1.9-9.1,0-12.4,5.4-12.4,10.4s1.5,7,6.1,9.7l5.8,3.6c2.4,1.5,3.5,2.9,3.5,4.6,0,2.5-2,4.5-5.8,4.5s-7.1-1.7-9.1-3.2v7c2.3,1.1,5.6,2.1,9.4,2.1,8.3,0,12.2-5.1,12.2-10.7s-1.8-7.1-6.6-10l-5.7-3.6c-2-1.3-3.1-2.6-3.1-4.2,0-2.5,2-4.2,5.6-4.2s6.2,1.3,8.1,2.8v-6.8Z"/>
  <g>
    <polygon class="st2" points="241.2 296.5 115.2 354.7 115.2 308.5 241.2 250.3 241.2 296.5"/>
    <rect class="st2" x="421.9" y="364.2" width="1157.5" height="4.1"/>
  </g>
  <path class="st1" d="M718.7,460.9h6.3v-37.4h-6.3v37.4ZM766.3,460.9h6.3v-37.4h-6.3v26.6l-18.9-26.6h-7.5v.5l2.5,4v33h6.3v-24.2l17.6,24.2ZM808.2,424.8c-2.2-1.1-5-1.9-8-1.9-9.1,0-12.4,5.4-12.4,10.4s1.5,7,6.1,9.7l5.8,3.6c2.4,1.5,3.5,2.9,3.5,4.6,0,2.5-2,4.5-5.8,4.5s-7.1-1.7-9.1-3.2v7c2.3,1.1,5.6,2.1,9.4,2.1,8.3,0,12.2-5.1,12.2-10.7s-1.8-7.1-6.6-10l-5.7-3.6c-2-1.3-3.1-2.6-3.1-4.2,0-2.5,2-4.2,5.6-4.2s6.2,1.3,8.1,2.8v-6.8ZM830.8,460.9h6.3v-31.4h9.5v-6h-25.3v6h9.5v31.4ZM860.5,460.9h6.3v-37.4h-6.3v37.4ZM890,460.9h6.3v-31.4h9.5v-6h-25.3v6h9.5v31.4ZM940.7,423.5v24.2c0,4.6-3,7.8-7.6,7.8s-7.7-3.1-7.7-7.8v-24.2h-6.3v23.7c0,8.9,5.4,14.3,13.9,14.3s13.9-5.4,13.9-14.3v-23.7h-6.3ZM969.9,460.9h6.3v-31.4h9.5v-6h-25.3v6h9.5v31.4ZM1020.2,460.9v-6h-14.4v-9.8h13.3v-6h-13.3v-9.6h14.4v-6h-20.7v37.4h20.7ZM1054.4,442.2c0,10.9,8.3,19.3,19.3,19.3s19.3-8.4,19.3-19.3-8.3-19.3-19.3-19.3-19.3,8.4-19.3,19.3ZM1060.9,442.2c0-7.3,5.5-13,12.8-13s12.8,5.8,12.8,13-5.6,13-12.8,13-12.8-5.8-12.8-13ZM1127.3,446.6v-6h-13.3v-11.1h14.4v-6h-20.7v37.4h6.3v-14.3h13.3ZM1167.8,460.9h6.3v-31.4h9.5v-6h-25.3v6h9.5v31.4ZM1218.1,460.9v-6h-14.4v-9.8h13.3v-6h-13.3v-9.6h14.4v-6h-20.7v37.4h20.7ZM1259.6,452c-2.2,1.9-5.5,3.2-9.1,3.2-7.3,0-12.8-5.8-12.8-13s5.5-13,12.8-13,6.9,1.3,9.1,3.3v-7.3c-2.6-1.4-5.8-2.3-9.1-2.3-10.9,0-19.3,8.4-19.3,19.3s8.3,19.3,19.3,19.3,6.5-.9,9.1-2.3v-7.2ZM1300.4,460.9h6.3v-37.4h-6.3v15.6h-19.2v-15.6h-6.3v37.4h6.3v-15.8h19.2v15.8ZM1348,460.9h6.3v-37.4h-6.3v26.6l-18.9-26.6h-7.5v.5l2.5,4v33h6.3v-24.2l17.6,24.2ZM1369,442.2c0,10.9,8.3,19.3,19.3,19.3s19.3-8.4,19.3-19.3-8.3-19.3-19.3-19.3-19.3,8.4-19.3,19.3ZM1375.5,442.2c0-7.3,5.5-13,12.8-13s12.8,5.8,12.8,13-5.6,13-12.8,13-12.8-5.8-12.8-13ZM1443.1,460.9v-6h-14.4v-31.4h-6.3v37.4h20.7ZM1453.5,442.2c0,10.9,8.3,19.3,19.3,19.3s19.3-8.4,19.3-19.3-8.3-19.3-19.3-19.3-19.3,8.4-19.3,19.3ZM1459.9,442.2c0-7.3,5.5-13,12.8-13s12.8,5.8,12.8,13-5.6,13-12.8,13-12.8-5.8-12.8-13ZM1561,460.9h6.3v-16.3l12.2-21.1h-7l-8.3,14.8-8.3-14.8h-7.1l12.3,21.1v16.3ZM1533.2,431.5h-.1c-1-.7-2.4-1.2-4.1-1.7-1.7-.4-3.2-.7-4.4-.7-4.3,0-7.7,1.2-10.1,3.5-2.4,2.3-3.7,5.7-3.7,9.9s.6,4.8,1.7,6.7c1.1,1.9,2.8,3.4,4.8,4.5,2.1,1.1,4.5,1.6,7.1,1.6s2.3-.1,3.4-.3c1.1-.2,2-.5,2.7-.9v-6.1h-7.1v-6h13.3v15.6h0c-1,1-2.9,1.9-5.4,2.7-2.6.8-4.9,1.2-7.1,1.2-4,0-7.5-.8-10.5-2.4-3-1.6-5.3-3.8-7-6.6-1.6-2.8-2.4-6-2.4-9.5s.9-7.9,2.6-10.9c1.7-3,4.1-5.4,7.1-6.9,2.9-1.5,6.2-2.3,9.7-2.3s4.2.3,6.2.8c1.9.5,3.7,1.2,5.2,2h0s-2,5.8-2,5.8Z"/>
  <path class="st1" d="M241.2,204l126.1,58.2v46.2s-126.1-58.2-126.1-58.2v-46.2ZM475.7,228.3c.6,4,.9,8.5.9,13.7s-.3,9.3-.8,13.2c-.5,3.9-1.6,7.3-3.2,10.1-1.6,2.8-4,5-7.2,6.5-3.2,1.5-7.4,2.2-12.5,2.2h-15.8v34.6h-15.1v-98.6h31c5.1,0,9.2.7,12.3,2.2,3.2,1.4,5.5,3.5,7.2,6.2,1.6,2.7,2.7,6.1,3.3,10ZM461.4,242c0-4.1-.2-7.4-.5-9.9-.3-2.5-1-4.4-1.9-5.7-.9-1.3-2.2-2.2-3.8-2.7-1.6-.5-3.7-.7-6.3-.7h-11.9v38.1h11.9c2.3,0,4.3-.2,5.9-.6,1.6-.4,2.9-1.3,3.9-2.5,1-1.2,1.6-3.2,2.1-5.7.4-2.6.6-6,.6-10.2ZM503.1,274.8c0-6.6.6-11.8,1.8-15.6,1.2-3.8,3.2-6.5,5.9-8.2,2.7-1.6,6.3-2.4,10.7-2.4v-14.3c-3.2,0-5.9.4-8.3,1.3-2.4.9-4.4,2.3-5.9,4.4-1.6,2.1-2.8,4.9-3.8,8.5h-.9l-.6-13h-13v73.1h14.2v-33.7ZM555.8,309.6c-4.9,0-8.9-.3-12-1-3.2-.7-5.7-1.8-7.5-3.5-1.9-1.7-3.3-3.9-4.2-6.8-.9-2.9-1.5-6.5-1.8-10.8-.3-4.3-.4-9.5-.4-15.6s.1-11.3.4-15.6c.3-4.3.9-7.9,1.8-10.8.9-2.9,2.3-5.1,4.2-6.8,1.9-1.7,4.4-2.8,7.5-3.5,3.2-.7,7.2-1,12-1s8.4.3,11.5,1c3.1.7,5.6,1.8,7.5,3.5,1.9,1.7,3.2,3.9,4.1,6.8s1.4,6.5,1.7,10.8c.3,4.3.4,9.5.4,15.6s-.1,11.3-.4,15.6c-.3,4.3-.9,7.9-1.7,10.8-.9,2.9-2.2,5.1-4.1,6.8-1.9,1.7-4.4,2.8-7.5,3.5-3.1.7-7,1-11.5,1ZM555.6,297.9c2.8,0,4.9-.3,6.5-.9,1.5-.6,2.7-1.7,3.4-3.5.7-1.8,1.1-4.4,1.3-7.8.1-3.4.2-8,.2-13.8s0-10.3-.2-13.8c-.1-3.4-.6-6-1.3-7.8-.7-1.8-1.8-2.9-3.4-3.5-1.5-.6-3.7-.9-6.6-.9s-4.9.3-6.5.9c-1.5.6-2.7,1.7-3.4,3.5-.7,1.8-1.1,4.4-1.3,7.8-.1,3.4-.2,8-.2,13.8s0,10.3.2,13.8c.1,3.4.6,6,1.3,7.8.7,1.8,1.8,2.9,3.4,3.5,1.5.6,3.7.9,6.6.9ZM627.1,235.4h-12.8v-11.8c0-2.6.2-4.6.6-6.1.4-1.5,1-2.6,1.9-3.3.9-.7,2.2-1.2,3.8-1.4,1.6-.2,3.8-.3,6.5-.3v-10.6c-4.4,0-8.2.1-11.3.4-3.2.2-5.8.8-7.8,1.7-2.1.9-3.7,2.2-4.8,4-1.1,1.8-2,4.1-2.4,7.1-.5,3-.7,6.7-.7,11.2v9h-9.9v11.8h9.9v61.4h14.3v-61.4h12.8v-11.8ZM683.3,307.5c-1.5.4-3.5.7-5.8,1.1-2.3.3-4.8.6-7.3.8-2.5.2-5.1.3-7.7.3-5.2,0-9.4-.5-12.6-1.4-3.3-.9-5.8-2.3-7.7-4.2-1.9-1.9-3.3-4.3-4.2-7.2-.9-2.9-1.5-6.5-1.7-10.6-.2-4.2-.4-8.9-.4-14.1s.2-13,.6-17.8c.4-4.8,1.5-8.7,3.2-11.6,1.7-2.9,4.3-5,7.7-6.4,3.4-1.3,8.1-2,14.1-2s8.6.5,11.6,1.4c3,.9,5.3,2.3,7,4.2,1.7,1.9,2.9,4.3,3.7,7.2.7,3,1.1,6.5,1.3,10.7.1,4.2.2,8.9.2,14.3v4.3h-35.4c0,4.9.2,8.7.5,11.6.3,2.9,1,5,2.1,6.5,1.1,1.5,2.6,2.4,4.7,2.9,2.1.4,4.9.6,8.4.6s3.5,0,5.3-.1c1.8,0,3.8-.3,5.9-.5,2.2-.2,4.3-.5,6.5-.8v11ZM649.9,266.8h21.9c0-4.8-.1-8.6-.4-11.4-.3-2.8-.8-4.9-1.5-6.3-.7-1.4-1.8-2.3-3.2-2.7-1.4-.4-3.2-.6-5.5-.6s-4.4.2-5.9.7c-1.6.5-2.7,1.5-3.5,2.9-.8,1.5-1.3,3.6-1.5,6.4-.2,2.8-.4,6.5-.4,11ZM736,304.8c1.9-1.8,3.2-4.1,4.1-6.9.9-2.8,1.3-6.4,1.3-10.7s-.6-10.3-1.6-13.1c-1.1-2.8-2.6-4.7-4.5-5.7-1.9-1-4-1.6-6.3-1.9l-12.3-1.7c-1.8-.3-3.2-.7-4-1.3-.9-.6-1.4-1.5-1.6-2.8-.2-1.3-.4-3.1-.4-5.4s.4-4.7,1.1-6c.8-1.3,2-2.3,3.6-2.8,1.6-.5,3.8-.8,6.5-.8s4.1,0,5.9.1c1.9,0,3.7.2,5.4.4,1.8.2,3.5.5,5.1.9v-11c-1.3-.4-3-.7-5.1-1-2.1-.3-4.2-.5-6.5-.7-2.3-.2-4.5-.3-6.6-.3-3.9,0-7.3.3-10.2,1-2.9.7-5.3,1.8-7.3,3.5-2,1.7-3.5,3.9-4.4,6.7-1,2.8-1.4,6.3-1.4,10.5s.3,8.2,1,11c.7,2.9,1.8,5,3.4,6.4,1.6,1.4,3.8,2.3,6.5,2.8l13.5,2c2.2.3,3.8.7,4.7,1.3.9.6,1.5,1.5,1.6,2.8.2,1.3.3,3.2.3,5.8s-.3,4.6-.9,6c-.6,1.4-1.7,2.5-3.4,3.1-1.6.6-4,.9-7.2.9s-3.1,0-4.6,0c-1.5,0-3-.1-4.4-.2-1.4,0-2.9-.2-4.4-.4-1.5-.2-2.9-.4-4.4-.6v10.9c1.8.4,3.9.7,6.3,1,2.4.3,4.8.5,7.3.7,2.5.2,4.8.3,7,.3,3.9,0,7.3-.4,10-1.1,2.8-.7,5.1-2,7-3.7ZM794.7,298c.9-2.8,1.3-6.4,1.3-10.7s-.6-10.3-1.6-13.1c-1.1-2.8-2.6-4.7-4.5-5.7-1.9-1-4-1.6-6.3-1.9l-12.3-1.7c-1.8-.3-3.2-.7-4-1.3-.9-.6-1.4-1.5-1.6-2.8-.2-1.3-.4-3.1-.4-5.4s.4-4.7,1.1-6c.8-1.3,2-2.3,3.6-2.8,1.6-.5,3.8-.8,6.5-.8s4.1,0,5.9.1c1.9,0,3.7.2,5.4.4,1.8.2,3.5.5,5.1.9v-11c-1.3-.4-3-.7-5.1-1-2.1-.3-4.2-.5-6.5-.7-2.3-.2-4.5-.3-6.6-.3-3.9,0-7.3.3-10.2,1-2.9.7-5.3,1.8-7.3,3.5-2,1.7-3.5,3.9-4.4,6.7-1,2.8-1.4,6.3-1.4,10.5s.3,8.2,1,11c.7,2.9,1.8,5,3.4,6.4,1.6,1.4,3.8,2.3,6.5,2.8l13.5,2c2.2.3,3.8.7,4.7,1.3.9.6,1.5,1.5,1.6,2.8.2,1.3.3,3.2.3,5.8s-.3,4.6-.9,6c-.6,1.4-1.7,2.5-3.4,3.1-1.6.6-4,.9-7.2.9s-3.1,0-4.6,0c-1.5,0-3-.1-4.4-.2-1.4,0-2.9-.2-4.4-.4-1.5-.2-2.9-.4-4.4-.6v10.9c1.8.4,3.9.7,6.3,1,2.4.3,4.8.5,7.3.7,2.5.2,4.8.3,7,.3,3.9,0,7.3-.4,10-1.1,2.8-.7,5.1-2,7-3.7,1.9-1.8,3.2-4.1,4.1-6.9ZM823.4,235.4h-14.2v73.1h14.2v-73.1ZM808.9,216.5h14.6v-14.5h-14.6v14.5ZM863.6,309.6c-4.9,0-8.9-.3-12-1-3.2-.7-5.7-1.8-7.5-3.5-1.9-1.7-3.3-3.9-4.2-6.8-.9-2.9-1.5-6.5-1.8-10.8-.3-4.3-.4-9.5-.4-15.6s.1-11.3.4-15.6c.3-4.3.9-7.9,1.8-10.8.9-2.9,2.3-5.1,4.2-6.8,1.9-1.7,4.4-2.8,7.5-3.5,3.2-.7,7.2-1,12-1s8.4.3,11.5,1c3.1.7,5.6,1.8,7.5,3.5,1.9,1.7,3.2,3.9,4.1,6.8.9,2.9,1.4,6.5,1.7,10.8.3,4.3.4,9.5.4,15.6s-.1,11.3-.4,15.6c-.3,4.3-.9,7.9-1.7,10.8-.9,2.9-2.2,5.1-4.1,6.8-1.9,1.7-4.4,2.8-7.5,3.5-3.1.7-7,1-11.5,1ZM863.4,297.9c2.8,0,4.9-.3,6.5-.9,1.5-.6,2.7-1.7,3.4-3.5.7-1.8,1.1-4.4,1.3-7.8.1-3.4.2-8,.2-13.8s0-10.3-.2-13.8c-.1-3.4-.6-6-1.3-7.8-.7-1.8-1.8-2.9-3.4-3.5-1.5-.6-3.7-.9-6.6-.9s-4.9.3-6.5.9c-1.5.6-2.7,1.7-3.4,3.5-.7,1.8-1.1,4.4-1.3,7.8-.1,3.4-.2,8-.2,13.8s0,10.3.2,13.8c.1,3.4.6,6,1.3,7.8.7,1.8,1.8,2.9,3.4,3.5,1.5.6,3.7.9,6.6.9ZM936.8,250.3c.7,1.3,1.1,3.3,1.3,5.9.2,2.6.3,6.2.3,10.8v41.4h14.3v-46.9c0-4.8-.2-8.9-.6-12.3-.4-3.4-1.3-6.2-2.5-8.5-1.2-2.2-3.1-3.9-5.4-5-2.4-1.1-5.5-1.6-9.3-1.6s-5.7.4-8,1.2c-2.2.8-4.1,2-5.6,3.5-1.5,1.5-2.7,3.5-3.5,6h-.9l-.6-9.6h-13v73.1h14.2v-38c0-4.1,0-7.6.3-10.5.2-2.9.6-5.4,1.3-7.3.7-2,1.7-3.4,3.2-4.4,1.5-1,3.5-1.4,6.1-1.4s4.1.2,5.4.7c1.3.5,2.3,1.4,3,2.7ZM1013.8,251.7c.3,3.2.5,6.9.5,11.2v45.6h-13l-.6-9.5h-1c-1,2.8-2.2,4.9-3.9,6.5-1.6,1.5-3.5,2.6-5.7,3.2-2.2.6-4.6.9-7.2.9-4.2,0-7.6-.7-10.3-2.2-2.6-1.4-4.6-3.7-5.8-6.9-1.2-3.2-1.9-7.4-1.9-12.6s.6-10.2,1.8-13.3c1.2-3.2,3.2-5.4,5.9-6.7,2.7-1.3,6.4-1.9,11-1.9h3.3c1.2,0,2.6,0,3.9,0,1.4,0,2.8.1,4.4.2,1.5,0,3.2.2,4.9.3v-4.3c0-3.8-.2-6.9-.6-9.1-.4-2.2-1.1-3.9-2.2-4.9-1.1-1-2.6-1.6-4.5-1.9-2-.3-4.5-.4-7.5-.4s-3,0-4.7.1c-1.7,0-3.6.2-5.6.4-2,.2-4.2.4-6.6.7v-10.9c3.3-.8,6.8-1.3,10.3-1.6,3.5-.3,7.1-.5,10.8-.5s7.9.3,10.8.9c2.9.6,5.3,1.6,7.2,3,1.9,1.4,3.3,3.2,4.3,5.4,1,2.2,1.7,4.9,2,8.1ZM1000.1,275.7h-12.5c-2.6,0-4.5.3-5.7.9-1.2.6-2,1.7-2.4,3.4-.3,1.6-.5,3.9-.5,6.9s.2,5.2.6,6.8c.4,1.6,1.3,2.7,2.7,3.2,1.4.6,3.4.9,6.1.9s3.1-.1,4.3-.4c1.2-.2,2.3-.7,3.2-1.4.9-.7,1.6-1.7,2.2-2.9.7-1.4,1.1-3.3,1.4-5.5.3-2.2.4-4.8.4-7.5v-4.3ZM1030.5,202v106.5h14.2v-106.5h-14.2ZM1090,308.5h47.5v-13h-32.4v-30.4h28.1v-12.9h-28.1v-29.2h32.4v-13h-47.5v98.6ZM1200,202v106.5h-13.2l-.6-9.5h-.9c-.8,2.8-2,4.9-3.6,6.5-1.6,1.5-3.5,2.6-5.7,3.2-2.2.6-4.6.9-7.2.9-3.8,0-7-.6-9.5-1.7-2.5-1.1-4.5-3.1-6-5.9-1.5-2.8-2.5-6.7-3.1-11.5-.6-4.9-.9-11-.9-18.4s.3-13.5.9-18.4c.6-4.9,1.6-8.8,3.1-11.6,1.5-2.8,3.5-4.8,5.9-6,2.5-1.2,5.6-1.8,9.5-1.8s5.4.3,7.5.9c2.1.6,3.9,1.6,5.3,3,1.4,1.4,2.6,3.2,3.4,5.5h.9v-41.7h14.2ZM1185.8,271.4c0-3.8,0-7-.2-9.6-.1-2.6-.4-4.6-.6-6.2-.5-3.2-1.5-5.5-3.2-6.9-1.6-1.3-4-2-7.2-2s-4.3.2-5.7.7c-1.4.5-2.5,1.5-3.3,3.2-.8,1.6-1.3,4.1-1.6,7.5-.3,3.4-.4,8-.4,13.8s.1,10.5.4,13.9c.2,3.4.8,5.9,1.6,7.5.8,1.6,2,2.6,3.4,3,1.5.4,3.5.6,5.9.6s4.9-.5,6.5-1.5c1.5-1,2.6-2.8,3.2-5.4.6-2,.9-4.4,1.1-7.3.1-2.9.2-6.7.2-11.5ZM1251.3,273.4c0,4.8-.1,8.7-.4,11.8-.3,3.1-.8,5.5-1.5,7.2-.7,1.7-1.8,2.9-3.3,3.6-1.5.7-3.4,1.1-5.8,1.1s-3.8-.2-5.1-.6c-1.3-.4-2.3-1.2-3-2.5-.7-1.3-1.2-3.3-1.5-6-.3-2.7-.4-6.4-.4-11.1v-41.4h-14.2v46.9c0,4.6.2,8.6.6,12.1.4,3.5,1.3,6.4,2.5,8.6,1.2,2.2,3.1,3.9,5.4,5,2.4,1.1,5.5,1.6,9.3,1.6s5.4-.4,7.7-1.1c2.2-.7,4.2-1.9,5.7-3.4,1.6-1.6,2.8-3.7,3.7-6.2h.9l.4,9.6h13.2v-73.1h-14.2v38ZM1307.4,297.9c-2.8,0-5-.3-6.8-.9-1.8-.6-3.1-1.8-4-3.6-.9-1.8-1.5-4.4-1.9-7.9-.3-3.4-.5-8-.5-13.6s.2-10,.5-13.5c.3-3.4.9-6,1.8-7.8.9-1.8,2.2-3,3.9-3.7,1.8-.7,4-1,6.8-1s4.2,0,6.2.3c2.1.2,4,.5,5.8,1v-11c-1.9-.6-4.3-1.1-7.2-1.4-2.9-.4-5.7-.6-8.4-.6-4,0-7.4.4-10.2,1.2-2.8.8-5.1,2.1-6.9,3.9-1.8,1.8-3.2,4.2-4.2,7.1-1,2.9-1.6,6.5-1.9,10.7-.3,4.2-.5,9.1-.5,14.8s.1,10.1.4,14.2c.3,4.1.9,7.6,1.7,10.6.9,3,2.2,5.4,3.9,7.3,1.8,1.9,4.1,3.3,7,4.2,2.9.9,6.5,1.4,10.8,1.4s5.6-.2,8.2-.5c2.6-.3,5.2-.8,7.7-1.5v-11c-1.8.4-3.8.7-5.8.9-2.1.2-4.2.4-6.5.4ZM1378.3,262.9v45.6h-13l-.6-9.5h-1c-1,2.8-2.2,4.9-3.9,6.5-1.6,1.5-3.5,2.6-5.7,3.2-2.2.6-4.6.9-7.2.9-4.2,0-7.6-.7-10.3-2.2-2.6-1.4-4.6-3.7-5.8-6.9-1.2-3.2-1.9-7.4-1.9-12.6s.6-10.2,1.8-13.3c1.2-3.2,3.2-5.4,5.9-6.7,2.7-1.3,6.4-1.9,11-1.9h3.3c1.2,0,2.6,0,3.9,0,1.4,0,2.8.1,4.4.2,1.5,0,3.2.2,4.9.3v-4.3c0-3.8-.2-6.9-.6-9.1-.4-2.2-1.1-3.9-2.2-4.9-1.1-1-2.6-1.6-4.5-1.9-2-.3-4.5-.4-7.5-.4s-3,0-4.7.1c-1.7,0-3.6.2-5.6.4-2,.2-4.2.4-6.6.7v-10.9c3.3-.8,6.8-1.3,10.3-1.6,3.5-.3,7.1-.5,10.8-.5s7.9.3,10.8.9c2.9.6,5.3,1.6,7.2,3,1.9,1.4,3.3,3.2,4.3,5.4,1,2.2,1.7,4.9,2,8.1.3,3.2.5,6.9.5,11.2ZM1364.1,275.7h-12.5c-2.6,0-4.5.3-5.7.9-1.2.6-2,1.7-2.4,3.4-.3,1.6-.5,3.9-.5,6.9s.2,5.2.6,6.8c.4,1.6,1.3,2.7,2.7,3.2,1.4.6,3.4.9,6.1.9s3.1-.1,4.3-.4c1.2-.2,2.3-.7,3.2-1.4.9-.7,1.6-1.7,2.2-2.9.7-1.4,1.1-3.3,1.4-5.5.3-2.2.4-4.8.4-7.5v-4.3ZM1412.7,214.2h-14.5v21.2h-9.7v11.8h9.7v61.4h14.5v-61.4h11.9v-11.8h-11.9v-21.2ZM1436,308.5h14.2v-73.1h-14.2v73.1ZM1435.7,216.5h14.6v-14.5h-14.6v14.5ZM1515.7,271.9c0,6.1-.1,11.3-.4,15.6-.3,4.3-.9,7.9-1.7,10.8-.9,2.9-2.2,5.1-4.1,6.8-1.9,1.7-4.4,2.8-7.5,3.5-3.1.7-7,1-11.5,1s-8.9-.3-12-1c-3.2-.7-5.7-1.8-7.5-3.5-1.9-1.7-3.3-3.9-4.2-6.8-.9-2.9-1.5-6.5-1.8-10.8-.3-4.3-.4-9.5-.4-15.6s.1-11.3.4-15.6c.3-4.3.9-7.9,1.8-10.8.9-2.9,2.3-5.1,4.2-6.8,1.9-1.7,4.4-2.8,7.5-3.5,3.2-.7,7.2-1,12-1s8.4.3,11.5,1c3.1.7,5.6,1.8,7.5,3.5,1.9,1.7,3.2,3.9,4.1,6.8s1.4,6.5,1.7,10.8c.3,4.3.4,9.5.4,15.6ZM1501.5,271.9c0-5.7,0-10.3-.2-13.8-.1-3.4-.6-6-1.3-7.8-.7-1.8-1.8-2.9-3.4-3.5-1.5-.6-3.7-.9-6.6-.9s-4.9.3-6.5.9c-1.5.6-2.7,1.7-3.4,3.5-.7,1.8-1.1,4.4-1.3,7.8s-.2,8-.2,13.8,0,10.3.2,13.8.6,6,1.3,7.8c.7,1.8,1.8,2.9,3.4,3.5,1.5.6,3.7.9,6.6.9s4.9-.3,6.5-.9c1.5-.6,2.7-1.7,3.4-3.5.7-1.8,1.1-4.4,1.3-7.8.1-3.4.2-8,.2-13.8ZM1576.3,240.9c-1.2-2.2-3.1-3.9-5.4-5-2.4-1.1-5.5-1.6-9.3-1.6s-5.7.4-8,1.2c-2.2.8-4.1,2-5.6,3.5-1.5,1.5-2.7,3.5-3.5,6h-.9l-.6-9.6h-13v73.1h14.2v-38c0-4.1,0-7.6.3-10.5.2-2.9.6-5.4,1.3-7.3.7-2,1.7-3.4,3.2-4.4,1.5-1,3.5-1.4,6.1-1.4s4.1.2,5.4.7c1.3.5,2.3,1.4,3,2.7.7,1.3,1.1,3.3,1.3,5.9.2,2.6.3,6.2.3,10.8v41.4h14.3v-46.9c0-4.8-.2-8.9-.6-12.3-.4-3.4-1.3-6.2-2.5-8.5ZM422.9,161.2c.6,2.1,1.5,3.8,2.7,5,1.2,1.2,2.8,2.1,4.8,2.7,2,.6,4.5.9,7.4.9s2.1,0,3.3-.2c1.1-.1,2.2-.2,3.3-.4,1.1-.2,1.9-.4,2.7-.7v-7.9c-1,.2-2.1.3-3.3.4-1.2.1-2.5.2-3.9.2s-3-.1-4-.3c-1-.2-1.8-.7-2.4-1.4-.6-.7-1-1.7-1.3-3.1-.3-1.4-.4-3.2-.5-5.4,0-2.2-.1-5.1-.1-8.5s0-6.2.1-8.5c0-2.2.2-4.1.5-5.4.3-1.4.7-2.4,1.3-3.1.6-.7,1.4-1.1,2.4-1.4s2.3-.3,3.9-.3,1.2,0,1.9,0c.7,0,1.5,0,2.4.2.9.1,1.7.2,2.7.3v-7.9c-.6-.3-1.4-.5-2.4-.7-1-.2-2.1-.3-3.3-.4-1.2-.1-2.3-.2-3.4-.2-2.9,0-5.4.3-7.4.8-2,.5-3.6,1.4-4.8,2.7-1.2,1.3-2.1,2.9-2.8,5-.6,2.1-1,4.7-1.2,7.7-.2,3.1-.3,6.7-.3,11s.1,7.8.3,10.9c.2,3.1.6,5.7,1.2,7.8ZM480.7,149.3c0,3.3,0,6-.2,8.4-.2,2.3-.5,4.3-1,5.9-.5,1.6-1.3,2.8-2.3,3.7-1.1.9-2.5,1.5-4.2,1.9-1.7.4-3.9.5-6.5.5s-4.9-.2-6.7-.5c-1.8-.4-3.2-1-4.2-1.9-1.1-.9-1.8-2.1-2.3-3.7-.5-1.6-.8-3.5-1-5.9-.2-2.3-.3-5.1-.3-8.4s0-6.1.3-8.4c.2-2.3.5-4.3,1-5.8.5-1.5,1.3-2.8,2.3-3.6,1.1-.9,2.5-1.5,4.2-1.9,1.8-.4,4-.6,6.7-.6s4.7.2,6.5.5c1.7.4,3.1,1,4.2,1.9,1.1.9,1.8,2.1,2.3,3.7.5,1.5.8,3.5,1,5.8.2,2.3.2,5.1.2,8.4ZM471.2,149.3c0-2.8,0-5.1-.1-6.8,0-1.7-.3-3-.6-3.8-.3-.9-.8-1.4-1.4-1.7-.6-.3-1.6-.4-2.8-.4s-2.1.1-2.8.4c-.6.3-1.1.8-1.4,1.7-.3.9-.5,2.1-.5,3.8,0,1.7,0,4,0,6.9s0,5.1,0,6.8c0,1.7.2,3,.5,3.8.3.9.8,1.4,1.4,1.7.7.3,1.6.4,2.8.4s2.1-.1,2.8-.4c.6-.3,1.1-.8,1.4-1.7.3-.9.5-2.1.6-3.8,0-1.7.1-4,.1-6.8ZM496.6,111.5h-9.5v57.6h9.5v-57.6ZM513.6,111.5h-9.5v57.6h9.5v-57.6ZM547.8,152h-18.3c0,2.3,0,4.1.2,5.4.1,1.3.5,2.4,1,3,.5.7,1.3,1.1,2.3,1.3,1,.2,2.4.3,4.2.3s1.8,0,2.8,0c1,0,2-.1,3.2-.2,1.2-.1,2.4-.2,3.6-.3v7.1c-.8.2-1.9.4-3.2.6-1.3.2-2.7.3-4.1.4-1.4.1-2.9.2-4.3.2-2.9,0-5.3-.3-7.1-.8-1.8-.5-3.3-1.3-4.4-2.3-1.1-1-1.9-2.4-2.4-4-.5-1.6-.8-3.5-.9-5.7-.1-2.2-.2-4.7-.2-7.5s.1-6.9.4-9.5c.3-2.6.9-4.7,1.8-6.3.9-1.6,2.3-2.8,4.3-3.5,1.9-.7,4.5-1.1,7.9-1.1s4.9.2,6.5.7c1.7.5,3,1.2,4,2.2,1,1,1.6,2.3,2,3.9.4,1.6.6,3.5.7,5.8.1,2.2.2,4.8.2,7.7v2.6ZM538.8,146.2c0-2.2,0-4-.2-5.3-.1-1.3-.3-2.3-.6-2.9-.3-.6-.7-1.1-1.4-1.3-.6-.2-1.4-.3-2.4-.3s-2,.1-2.6.3c-.6.2-1.1.7-1.5,1.4-.3.7-.5,1.7-.6,2.9,0,1.3-.1,3-.1,5.1h9.3ZM581.8,129.6v34.6c0,3.5-.1,6.5-.4,9.1-.3,2.6-.9,4.8-1.8,6.5-1,1.7-2.5,3-4.5,3.8-2.1.8-4.9,1.2-8.6,1.2s-2.8,0-4.1,0c-1.3,0-2.6-.1-3.7-.3-1.2-.1-2.2-.3-3.2-.5v-7c.8,0,1.6,0,2.4,0s1.8,0,2.8,0c1,0,2.2,0,3.5,0,2,0,3.5-.1,4.6-.4,1.1-.3,1.9-.8,2.4-1.5.5-.8.8-1.8.9-3.2.1-1.4.2-3.2.2-5.4v-2.6h-.6c-.4,1.1-1,2.1-1.7,2.8-.8.7-1.7,1.3-2.7,1.6-1.1.3-2.3.5-3.8.5s-3.6-.3-4.9-1c-1.3-.6-2.4-1.7-3.1-3.3-.7-1.5-1.3-3.6-1.6-6.1-.3-2.6-.5-5.8-.5-9.6s.2-7.4.5-10.1c.4-2.6.9-4.7,1.7-6.1.8-1.4,1.8-2.5,3.1-3,1.3-.6,2.9-.9,4.8-.9s2.5.2,3.6.5c1.1.3,2.1.9,2.9,1.7.8.8,1.4,1.9,1.9,3.3h.6l.3-4.9h9ZM572.3,149c0-1.8,0-3.4-.1-4.8,0-1.4-.2-2.4-.3-3.1-.3-1.5-.7-2.5-1.4-3.1-.6-.6-1.6-.9-3-.9s-1.9.1-2.6.3c-.6.2-1.1.7-1.4,1.5-.3.8-.5,2-.6,3.5,0,1.6-.1,3.7-.1,6.5s0,5,.1,6.6c0,1.6.3,2.8.6,3.5.3.7.8,1.2,1.5,1.4.6.2,1.5.3,2.5.3s2.2-.2,2.9-.7c.6-.5,1.1-1.3,1.3-2.6.2-.8.3-1.9.4-3.3,0-1.4.1-3.2.1-5.2ZM615.9,152h-18.3c0,2.3,0,4.1.2,5.4.1,1.3.5,2.4,1,3,.5.7,1.3,1.1,2.3,1.3,1,.2,2.4.3,4.2.3s1.8,0,2.8,0c1,0,2-.1,3.2-.2,1.2-.1,2.4-.2,3.6-.3v7.1c-.8.2-1.9.4-3.2.6-1.3.2-2.7.3-4.1.4-1.4.1-2.9.2-4.3.2-2.9,0-5.3-.3-7.1-.8-1.8-.5-3.3-1.3-4.4-2.3-1.1-1-1.9-2.4-2.4-4-.5-1.6-.8-3.5-.9-5.7-.1-2.2-.2-4.7-.2-7.5s.1-6.9.4-9.5c.3-2.6.9-4.7,1.8-6.3.9-1.6,2.3-2.8,4.3-3.5,1.9-.7,4.5-1.1,7.9-1.1s4.9.2,6.5.7c1.7.5,3,1.2,4,2.2,1,1,1.6,2.3,2,3.9.4,1.6.6,3.5.7,5.8.1,2.2.2,4.8.2,7.7v2.6ZM606.9,146.2c0-2.2,0-4-.2-5.3-.1-1.3-.3-2.3-.6-2.9-.3-.6-.7-1.1-1.4-1.3-.6-.2-1.4-.3-2.4-.3s-2,.1-2.6.3c-.6.2-1.1.7-1.5,1.4-.3.7-.5,1.7-.6,2.9,0,1.3-.1,3-.1,5.1h9.3ZM664.6,149.3c0,3.3,0,6-.2,8.4-.2,2.3-.5,4.3-1,5.9-.5,1.6-1.3,2.8-2.3,3.7-1.1.9-2.5,1.5-4.2,1.9-1.7.4-3.9.5-6.5.5s-4.9-.2-6.7-.5c-1.8-.4-3.2-1-4.2-1.9-1.1-.9-1.8-2.1-2.3-3.7-.5-1.6-.8-3.5-1-5.9-.2-2.3-.3-5.1-.3-8.4s0-6.1.3-8.4c.2-2.3.5-4.3,1-5.8.5-1.5,1.3-2.8,2.3-3.6,1.1-.9,2.5-1.5,4.2-1.9,1.8-.4,4-.6,6.7-.6s4.7.2,6.5.5c1.7.4,3.1,1,4.2,1.9,1.1.9,1.8,2.1,2.3,3.7.5,1.5.8,3.5,1,5.8.2,2.3.2,5.1.2,8.4ZM655.1,149.3c0-2.8,0-5.1-.1-6.8,0-1.7-.3-3-.6-3.8-.3-.9-.8-1.4-1.4-1.7-.6-.3-1.6-.4-2.8-.4s-2.1.1-2.8.4c-.6.3-1.1.8-1.4,1.7-.3.9-.5,2.1-.5,3.8,0,1.7,0,4,0,6.9s0,5.1,0,6.8c0,1.7.2,3,.5,3.8.3.9.8,1.4,1.4,1.7.7.3,1.6.4,2.8.4s2.1-.1,2.8-.4c.6-.3,1.1-.8,1.4-1.7.3-.9.5-2.1.6-3.8,0-1.7.1-4,.1-6.8ZM673.6,169.1h9.6v-31.9h6.7v-7.7h-6.7v-5.3c0-1.4,0-2.5.3-3.3.2-.8.5-1.4,1-1.7.5-.4,1.1-.6,2-.7.9-.1,2-.2,3.4-.2v-6.9c-2.8,0-5.2,0-7.1.2-1.9.2-3.5.5-4.7,1.1-1.2.6-2.1,1.4-2.8,2.4-.6,1.1-1.1,2.5-1.3,4.2-.2,1.8-.3,4-.3,6.7v3.4h-5v7.7h5v31.9Z"/>
</svg>